<mxfile host="app.diagrams.net" modified="2023-12-10T10:46:42.413Z" agent="Mozilla/5.0 (Windows NT 10.0; Win64; x64) AppleWebKit/537.36 (KHTML, like Gecko) Chrome/120.0.0.0 Safari/537.36" etag="pvAitrJW-RsCUuH1q6_e" version="21.7.5" type="github">
  <diagram name="Trang-1" id="saPo41RxSWKW9KXktEX6">
    <mxGraphModel dx="1050" dy="534" grid="1" gridSize="10" guides="1" tooltips="1" connect="1" arrows="1" fold="1" page="1" pageScale="1" pageWidth="1169" pageHeight="827" math="0" shadow="0">
      <root>
        <mxCell id="0" />
        <mxCell id="1" parent="0" />
        <mxCell id="rucuWsjFYKOYeMMud675-11" style="edgeStyle=orthogonalEdgeStyle;rounded=0;orthogonalLoop=1;jettySize=auto;html=1;entryX=0.763;entryY=0.03;entryDx=0;entryDy=0;entryPerimeter=0;" edge="1" parent="1" source="rucuWsjFYKOYeMMud675-1" target="rucuWsjFYKOYeMMud675-5">
          <mxGeometry relative="1" as="geometry" />
        </mxCell>
        <mxCell id="rucuWsjFYKOYeMMud675-12" style="edgeStyle=orthogonalEdgeStyle;rounded=0;orthogonalLoop=1;jettySize=auto;html=1;" edge="1" parent="1" source="rucuWsjFYKOYeMMud675-1" target="rucuWsjFYKOYeMMud675-7">
          <mxGeometry relative="1" as="geometry" />
        </mxCell>
        <mxCell id="rucuWsjFYKOYeMMud675-14" style="edgeStyle=orthogonalEdgeStyle;rounded=0;orthogonalLoop=1;jettySize=auto;html=1;" edge="1" parent="1" source="rucuWsjFYKOYeMMud675-1" target="rucuWsjFYKOYeMMud675-6">
          <mxGeometry relative="1" as="geometry" />
        </mxCell>
        <mxCell id="rucuWsjFYKOYeMMud675-1" value="&lt;font style=&quot;vertical-align: inherit;&quot;&gt;&lt;font style=&quot;vertical-align: inherit;&quot;&gt;&lt;b&gt;Marketting&lt;/b&gt;&lt;/font&gt;&lt;/font&gt;" style="rounded=0;whiteSpace=wrap;html=1;fillColor=#f8cecc;strokeColor=#b85450;" vertex="1" parent="1">
          <mxGeometry x="360" y="50" width="230" height="60" as="geometry" />
        </mxCell>
        <mxCell id="rucuWsjFYKOYeMMud675-33" style="edgeStyle=orthogonalEdgeStyle;rounded=0;orthogonalLoop=1;jettySize=auto;html=1;entryX=0.5;entryY=0;entryDx=0;entryDy=0;entryPerimeter=0;" edge="1" parent="1" source="rucuWsjFYKOYeMMud675-5" target="rucuWsjFYKOYeMMud675-19">
          <mxGeometry relative="1" as="geometry" />
        </mxCell>
        <mxCell id="rucuWsjFYKOYeMMud675-34" style="edgeStyle=orthogonalEdgeStyle;rounded=0;orthogonalLoop=1;jettySize=auto;html=1;entryX=0.5;entryY=0;entryDx=0;entryDy=0;entryPerimeter=0;" edge="1" parent="1" source="rucuWsjFYKOYeMMud675-5" target="rucuWsjFYKOYeMMud675-16">
          <mxGeometry relative="1" as="geometry" />
        </mxCell>
        <mxCell id="rucuWsjFYKOYeMMud675-5" value="&lt;font style=&quot;vertical-align: inherit;&quot;&gt;&lt;font style=&quot;vertical-align: inherit;&quot;&gt;&lt;font style=&quot;vertical-align: inherit;&quot;&gt;&lt;font style=&quot;vertical-align: inherit;&quot;&gt;&lt;b&gt;Bạn Trợ Giảng&lt;/b&gt;&lt;/font&gt;&lt;/font&gt;&lt;/font&gt;&lt;/font&gt;" style="ellipse;whiteSpace=wrap;html=1;fillColor=#fff2cc;strokeColor=#d6b656;" vertex="1" parent="1">
          <mxGeometry x="180" y="190" width="120" height="80" as="geometry" />
        </mxCell>
        <mxCell id="rucuWsjFYKOYeMMud675-38" style="edgeStyle=orthogonalEdgeStyle;rounded=0;orthogonalLoop=1;jettySize=auto;html=1;entryX=0.5;entryY=0;entryDx=0;entryDy=0;entryPerimeter=0;" edge="1" parent="1" source="rucuWsjFYKOYeMMud675-6" target="rucuWsjFYKOYeMMud675-18">
          <mxGeometry relative="1" as="geometry" />
        </mxCell>
        <mxCell id="rucuWsjFYKOYeMMud675-39" style="edgeStyle=orthogonalEdgeStyle;rounded=0;orthogonalLoop=1;jettySize=auto;html=1;entryX=0.5;entryY=0;entryDx=0;entryDy=0;entryPerimeter=0;" edge="1" parent="1" source="rucuWsjFYKOYeMMud675-6" target="rucuWsjFYKOYeMMud675-17">
          <mxGeometry relative="1" as="geometry" />
        </mxCell>
        <mxCell id="rucuWsjFYKOYeMMud675-6" value="&lt;font style=&quot;vertical-align: inherit;&quot;&gt;&lt;font style=&quot;vertical-align: inherit;&quot;&gt;&lt;b&gt;Bạn Trợ Giảng&lt;/b&gt;&lt;/font&gt;&lt;/font&gt;" style="ellipse;whiteSpace=wrap;html=1;fillColor=#fff2cc;strokeColor=#d6b656;" vertex="1" parent="1">
          <mxGeometry x="670" y="180" width="120" height="80" as="geometry" />
        </mxCell>
        <mxCell id="rucuWsjFYKOYeMMud675-21" style="edgeStyle=orthogonalEdgeStyle;rounded=0;orthogonalLoop=1;jettySize=auto;html=1;entryX=1;entryY=0.5;entryDx=0;entryDy=0;" edge="1" parent="1" source="rucuWsjFYKOYeMMud675-7" target="rucuWsjFYKOYeMMud675-5">
          <mxGeometry relative="1" as="geometry" />
        </mxCell>
        <mxCell id="rucuWsjFYKOYeMMud675-28" style="edgeStyle=orthogonalEdgeStyle;rounded=0;orthogonalLoop=1;jettySize=auto;html=1;entryX=0;entryY=0.5;entryDx=0;entryDy=0;" edge="1" parent="1" source="rucuWsjFYKOYeMMud675-7" target="rucuWsjFYKOYeMMud675-6">
          <mxGeometry relative="1" as="geometry" />
        </mxCell>
        <mxCell id="rucuWsjFYKOYeMMud675-37" style="edgeStyle=orthogonalEdgeStyle;rounded=0;orthogonalLoop=1;jettySize=auto;html=1;entryX=0.5;entryY=0;entryDx=0;entryDy=0;entryPerimeter=0;" edge="1" parent="1" source="rucuWsjFYKOYeMMud675-7" target="rucuWsjFYKOYeMMud675-15">
          <mxGeometry relative="1" as="geometry" />
        </mxCell>
        <mxCell id="rucuWsjFYKOYeMMud675-7" value="&lt;font style=&quot;vertical-align: inherit;&quot;&gt;&lt;font style=&quot;vertical-align: inherit;&quot;&gt;&lt;b&gt;Em&lt;/b&gt;&lt;/font&gt;&lt;/font&gt;" style="ellipse;whiteSpace=wrap;html=1;fillColor=#fff2cc;strokeColor=#d6b656;" vertex="1" parent="1">
          <mxGeometry x="420" y="190" width="120" height="80" as="geometry" />
        </mxCell>
        <mxCell id="rucuWsjFYKOYeMMud675-15" value="&lt;b&gt;Học Viên&lt;/b&gt;" style="shape=umlActor;verticalLabelPosition=bottom;verticalAlign=top;html=1;outlineConnect=0;" vertex="1" parent="1">
          <mxGeometry x="470" y="360" width="30" height="60" as="geometry" />
        </mxCell>
        <mxCell id="rucuWsjFYKOYeMMud675-16" value="&lt;b&gt;Học Viên&lt;/b&gt;" style="shape=umlActor;verticalLabelPosition=bottom;verticalAlign=top;html=1;outlineConnect=0;" vertex="1" parent="1">
          <mxGeometry x="290" y="360" width="30" height="60" as="geometry" />
        </mxCell>
        <mxCell id="rucuWsjFYKOYeMMud675-17" value="&lt;b&gt;Học Viên&lt;/b&gt;" style="shape=umlActor;verticalLabelPosition=bottom;verticalAlign=top;html=1;outlineConnect=0;" vertex="1" parent="1">
          <mxGeometry x="620" y="360" width="30" height="60" as="geometry" />
        </mxCell>
        <mxCell id="rucuWsjFYKOYeMMud675-18" value="&lt;b&gt;Học Viên&lt;/b&gt;" style="shape=umlActor;verticalLabelPosition=bottom;verticalAlign=top;html=1;outlineConnect=0;" vertex="1" parent="1">
          <mxGeometry x="740" y="360" width="30" height="60" as="geometry" />
        </mxCell>
        <mxCell id="rucuWsjFYKOYeMMud675-19" value="&lt;b&gt;Học Viên&lt;/b&gt;" style="shape=umlActor;verticalLabelPosition=bottom;verticalAlign=top;html=1;outlineConnect=0;fillColor=#e1d5e7;strokeColor=#9673a6;" vertex="1" parent="1">
          <mxGeometry x="170" y="370" width="30" height="60" as="geometry" />
        </mxCell>
        <mxCell id="rucuWsjFYKOYeMMud675-41" style="edgeStyle=orthogonalEdgeStyle;rounded=0;orthogonalLoop=1;jettySize=auto;html=1;" edge="1" parent="1" source="rucuWsjFYKOYeMMud675-40" target="rucuWsjFYKOYeMMud675-15">
          <mxGeometry relative="1" as="geometry" />
        </mxCell>
        <mxCell id="rucuWsjFYKOYeMMud675-42" style="edgeStyle=orthogonalEdgeStyle;rounded=0;orthogonalLoop=1;jettySize=auto;html=1;" edge="1" parent="1" source="rucuWsjFYKOYeMMud675-40" target="rucuWsjFYKOYeMMud675-16">
          <mxGeometry relative="1" as="geometry" />
        </mxCell>
        <mxCell id="rucuWsjFYKOYeMMud675-43" style="edgeStyle=orthogonalEdgeStyle;rounded=0;orthogonalLoop=1;jettySize=auto;html=1;" edge="1" parent="1" source="rucuWsjFYKOYeMMud675-40" target="rucuWsjFYKOYeMMud675-18">
          <mxGeometry relative="1" as="geometry" />
        </mxCell>
        <mxCell id="rucuWsjFYKOYeMMud675-44" style="edgeStyle=orthogonalEdgeStyle;rounded=0;orthogonalLoop=1;jettySize=auto;html=1;" edge="1" parent="1" source="rucuWsjFYKOYeMMud675-40" target="rucuWsjFYKOYeMMud675-19">
          <mxGeometry relative="1" as="geometry" />
        </mxCell>
        <mxCell id="rucuWsjFYKOYeMMud675-45" style="edgeStyle=orthogonalEdgeStyle;rounded=0;orthogonalLoop=1;jettySize=auto;html=1;" edge="1" parent="1" source="rucuWsjFYKOYeMMud675-40" target="rucuWsjFYKOYeMMud675-17">
          <mxGeometry relative="1" as="geometry" />
        </mxCell>
        <mxCell id="rucuWsjFYKOYeMMud675-40" value="&lt;b&gt;Học Viện Vừa Học Vừa Làm Vừa Nhận Lương&lt;br&gt;Học Viên Chạy Thực Hành Có Số Điện Thoại Trả Lương Cho Họ&lt;br&gt;&lt;/b&gt;" style="rounded=1;whiteSpace=wrap;html=1;fillColor=#e1d5e7;strokeColor=#9673a6;" vertex="1" parent="1">
          <mxGeometry x="305" y="530" width="340" height="60" as="geometry" />
        </mxCell>
        <mxCell id="rucuWsjFYKOYeMMud675-48" style="edgeStyle=orthogonalEdgeStyle;rounded=0;orthogonalLoop=1;jettySize=auto;html=1;" edge="1" parent="1" source="rucuWsjFYKOYeMMud675-46" target="rucuWsjFYKOYeMMud675-40">
          <mxGeometry relative="1" as="geometry" />
        </mxCell>
        <mxCell id="rucuWsjFYKOYeMMud675-46" value="Chị Hiếu" style="rounded=0;whiteSpace=wrap;html=1;fillColor=#ffe6cc;strokeColor=#d79b00;" vertex="1" parent="1">
          <mxGeometry x="190" y="670" width="120" height="60" as="geometry" />
        </mxCell>
        <mxCell id="rucuWsjFYKOYeMMud675-49" style="edgeStyle=orthogonalEdgeStyle;rounded=0;orthogonalLoop=1;jettySize=auto;html=1;entryX=0.5;entryY=1;entryDx=0;entryDy=0;" edge="1" parent="1" source="rucuWsjFYKOYeMMud675-47" target="rucuWsjFYKOYeMMud675-40">
          <mxGeometry relative="1" as="geometry" />
        </mxCell>
        <mxCell id="rucuWsjFYKOYeMMud675-47" value="Chị Mai&amp;nbsp;" style="rounded=0;whiteSpace=wrap;html=1;fillColor=#ffe6cc;strokeColor=#d79b00;" vertex="1" parent="1">
          <mxGeometry x="620" y="680" width="120" height="60" as="geometry" />
        </mxCell>
        <mxCell id="rucuWsjFYKOYeMMud675-54" style="edgeStyle=orthogonalEdgeStyle;rounded=0;orthogonalLoop=1;jettySize=auto;html=1;" edge="1" parent="1" source="rucuWsjFYKOYeMMud675-50" target="rucuWsjFYKOYeMMud675-46">
          <mxGeometry relative="1" as="geometry" />
        </mxCell>
        <mxCell id="rucuWsjFYKOYeMMud675-55" style="edgeStyle=orthogonalEdgeStyle;rounded=0;orthogonalLoop=1;jettySize=auto;html=1;" edge="1" parent="1" source="rucuWsjFYKOYeMMud675-50">
          <mxGeometry relative="1" as="geometry">
            <mxPoint x="690" y="740" as="targetPoint" />
          </mxGeometry>
        </mxCell>
        <mxCell id="rucuWsjFYKOYeMMud675-50" value="Tư Vấn Chốt Khách" style="rounded=0;whiteSpace=wrap;html=1;fillColor=#ffe6cc;strokeColor=#d79b00;" vertex="1" parent="1">
          <mxGeometry x="350" y="820" width="280" height="60" as="geometry" />
        </mxCell>
        <mxCell id="rucuWsjFYKOYeMMud675-57" style="edgeStyle=orthogonalEdgeStyle;rounded=0;orthogonalLoop=1;jettySize=auto;html=1;entryX=0.073;entryY=1;entryDx=0;entryDy=0;entryPerimeter=0;" edge="1" parent="1" source="rucuWsjFYKOYeMMud675-56" target="rucuWsjFYKOYeMMud675-46">
          <mxGeometry relative="1" as="geometry" />
        </mxCell>
        <mxCell id="rucuWsjFYKOYeMMud675-56" value="CTV chị hiếu" style="ellipse;whiteSpace=wrap;html=1;fillColor=#dae8fc;strokeColor=#6c8ebf;" vertex="1" parent="1">
          <mxGeometry x="50" y="820" width="120" height="80" as="geometry" />
        </mxCell>
        <mxCell id="rucuWsjFYKOYeMMud675-59" style="edgeStyle=orthogonalEdgeStyle;rounded=0;orthogonalLoop=1;jettySize=auto;html=1;entryX=1;entryY=1;entryDx=0;entryDy=0;" edge="1" parent="1" source="rucuWsjFYKOYeMMud675-58" target="rucuWsjFYKOYeMMud675-47">
          <mxGeometry relative="1" as="geometry" />
        </mxCell>
        <mxCell id="rucuWsjFYKOYeMMud675-58" value="CTV chị Mai" style="ellipse;whiteSpace=wrap;html=1;fillColor=#dae8fc;strokeColor=#6c8ebf;" vertex="1" parent="1">
          <mxGeometry x="840" y="790" width="120" height="80" as="geometry" />
        </mxCell>
      </root>
    </mxGraphModel>
  </diagram>
</mxfile>
